# xmcd CD database file
#
# Track frame offsets:
#	225
#	23579
#	46696
#	73725
#	96973
#	113335
#	141850
#	163357
#	186150
#	204650
#	226355
#
# Disc length: 3433 seconds
#
# Revision: 3
# Processed by: cddbd v1.4PL0 Copyright (c) Steve Scherf et al.
# Submitted via: CDex 1.50beta8
#
DISCID=930d660b
DTITLE=Rumbatá - Encuentros
DYEAR=1995
DGENRE=Salsa
TTITLE0=Mano Dura
TTITLE1=El Libre Amor
TTITLE2=Latino
TTITLE3=Encuentros
TTITLE4=Contigo
TTITLE5=No te dejes Marina
TTITLE6=El Area de Noé
TTITLE7=Entre los Veinte y los Diez
TTITLE8=La Celosa
TTITLE9=Siguiendo tu Huello
TTITLE10=Rumbatéate
EXTD=YEAR: 1995
EXTT0=
EXTT1=
EXTT2=
EXTT3=
EXTT4=
EXTT5=
EXTT6=
EXTT7=
EXTT8=
EXTT9=
EXTT10=
PLAYORDER=
